<?xml version="1.0" standalone="no"?>
<!DOCTYPE svg PUBLIC "-//W3C//DTD SVG 20010904//EN"
 "http://www.w3.org/TR/2001/REC-SVG-20010904/DTD/svg10.dtd">
<svg version="1.0" xmlns="http://www.w3.org/2000/svg"
 width="1024.000000pt" height="1024.000000pt" viewBox="0 0 1024.000000 1024.000000"
 preserveAspectRatio="xMidYMid meet">

<g transform="translate(0.000000,1024.000000) scale(0.100000,-0.100000)"
fill="#000000" stroke="none">
<path d="M4875 10230 c-295 -22 -401 -32 -525 -51 -1326 -202 -2516 -915
-3327 -1994 -527 -701 -873 -1553 -978 -2411 -98 -790 -29 -1505 217 -2254
206 -629 511 -1178 949 -1705 113 -136 478 -500 619 -616 331 -274 625 -466
993 -651 240 -120 369 -174 657 -272 1395 -479 2937 -323 4220 424 552 322
1062 769 1467 1287 99 127 307 436 388 578 366 638 592 1351 659 2085 37 401
27 808 -30 1200 -59 411 -218 974 -359 1278 -14 29 -25 55 -25 58 0 14 -173
359 -222 444 -256 442 -500 763 -838 1100 -771 771 -1710 1254 -2800 1440
-294 50 -811 79 -1065 60z m610 -181 c391 -27 812 -111 1195 -239 1238 -413
2264 -1301 2855 -2471 351 -693 526 -1433 526 -2219 0 -768 -158 -1461 -491
-2145 -120 -248 -190 -372 -335 -590 -312 -468 -707 -885 -1162 -1228 -1021
-769 -2335 -1110 -3618 -936 -1885 255 -3456 1573 -4044 3393 -157 484 -234
979 -234 1501 -1 1343 525 2591 1489 3535 405 396 799 673 1309 921 791 383
1610 540 2510 478z"/>
<path d="M5320 9916 c0 -2 -49 -169 -110 -372 -60 -203 -110 -372 -110 -376 0
-4 29 -8 64 -8 l63 0 23 80 23 80 76 0 c116 0 117 -1 125 -73 12 -108 9 -103
84 -110 36 -4 67 -5 69 -4 2 3 -126 770 -130 773 -5 3 -177 13 -177 10z m100
-318 c11 -82 20 -153 20 -159 0 -8 -19 -10 -61 -6 -33 3 -63 7 -65 10 -4 4 59
272 73 307 8 21 10 12 33 -152z"/>
<path d="M4528 9886 c-53 -6 -99 -13 -102 -16 -5 -6 69 -749 76 -754 1 -2 61
3 132 10 161 17 199 35 239 114 29 55 29 55 24 205 -9 253 -51 387 -136 432
-49 26 -77 27 -233 9z m171 -130 c32 -34 47 -95 62 -242 20 -206 3 -255 -93
-269 l-46 -7 -6 43 c-12 88 -46 431 -46 465 l0 34 53 0 c43 0 58 -5 76 -24z"/>
<path d="M5866 9498 c-42 -194 -78 -362 -79 -372 -2 -14 6 -22 28 -26 201 -45
236 -50 280 -39 54 14 104 60 135 125 50 108 100 375 86 464 -8 53 -35 102
-69 125 -24 15 -185 59 -262 71 l-41 6 -78 -354z m282 186 c50 -32 51 -91 6
-284 -46 -196 -84 -244 -173 -220 -22 6 -41 16 -41 23 0 12 97 457 106 490 5
16 12 18 42 12 21 -3 47 -13 60 -21z"/>
<path d="M3982 9784 c-30 -7 -56 -15 -59 -18 -5 -5 165 -725 173 -735 8 -9
124 23 124 34 0 22 -172 720 -178 726 -4 3 -31 0 -60 -7z"/>
<path d="M3365 9604 c-54 -19 -114 -70 -131 -110 -29 -68 -9 -169 46 -236 36
-43 95 -72 192 -94 126 -28 168 -63 168 -139 0 -67 -79 -88 -124 -34 -14 17
-26 37 -26 44 0 25 -17 25 -74 4 -36 -14 -56 -28 -56 -38 0 -30 61 -122 93
-141 50 -31 130 -27 205 11 70 34 97 64 113 121 19 71 -18 183 -78 240 -36 34
-78 51 -178 73 -44 10 -92 24 -107 31 -31 16 -58 61 -58 97 0 28 38 67 66 67
21 0 54 -30 73 -67 l11 -22 57 24 c66 27 68 34 25 104 -46 75 -123 98 -217 65z"/>
<path d="M6890 9170 l-170 -340 121 -60 c101 -50 130 -60 173 -60 105 0 175
72 277 285 101 211 108 308 26 381 -33 31 -225 133 -249 134 -5 0 -85 -153
-178 -340z m290 160 c22 -11 45 -30 51 -42 19 -35 2 -104 -50 -214 -66 -138
-116 -212 -158 -232 -31 -15 -36 -15 -78 6 -25 12 -45 26 -45 32 0 14 229 470
235 470 3 0 23 -9 45 -20z"/>
<path d="M2686 9259 c-21 -11 -78 -45 -127 -75 l-90 -56 20 -31 c10 -18 96
-160 191 -317 94 -157 175 -289 180 -294 12 -12 122 53 113 67 -54 86 -153
253 -153 259 0 13 58 38 88 38 35 0 63 -29 125 -131 65 -106 64 -106 129 -67
l54 32 -78 117 c-90 134 -111 152 -174 147 -24 -2 -44 -3 -44 -3 0 1 9 19 20
40 33 64 10 149 -62 231 -57 65 -124 80 -192 43z m103 -154 c39 -45 58 -104
42 -133 -14 -26 -70 -57 -81 -45 -16 17 -100 158 -100 168 0 16 52 44 81 45
18 0 37 -11 58 -35z"/>
<path d="M7751 9033 c-27 -38 -126 -174 -220 -303 -94 -129 -171 -238 -171
-242 0 -7 63 -55 236 -180 l51 -37 31 45 c18 24 32 46 32 49 0 3 -115 87 -173
126 -8 6 103 172 123 184 4 3 42 -20 83 -50 41 -30 79 -55 84 -55 7 0 51 59
61 82 2 4 -31 32 -72 63 -42 31 -76 60 -76 66 0 10 99 149 106 149 2 0 41 -27
86 -60 45 -33 85 -60 89 -60 5 0 22 20 38 44 l30 43 -139 102 c-77 55 -142
101 -145 101 -3 0 -27 -30 -54 -67z"/>
<path d="M4940 8964 c-626 -35 -1209 -205 -1729 -504 -619 -356 -1105 -847
-1452 -1466 -446 -797 -592 -1743 -408 -2646 125 -614 394 -1178 804 -1686 85
-106 336 -364 425 -438 331 -276 607 -453 938 -604 843 -383 1791 -452 2677
-195 351 102 665 244 1000 453 115 72 160 103 305 216 246 189 511 462 702
721 37 50 75 101 86 115 35 46 139 215 183 295 279 518 420 969 480 1535 18
169 15 573 -5 758 -85 785 -383 1481 -895 2097 -201 241 -488 497 -776 691
-526 355 -1125 574 -1747 638 -146 16 -472 26 -588 20z m647 -203 c905 -122
1710 -554 2292 -1231 507 -590 792 -1227 888 -1985 25 -199 25 -655 0 -850
-60 -463 -175 -840 -371 -1220 -132 -255 -288 -492 -456 -695 -83 -99 -323
-342 -440 -444 -118 -103 -328 -260 -438 -327 -40 -24 -101 -61 -135 -82 -202
-123 -500 -249 -782 -332 -319 -93 -583 -133 -930 -142 -501 -12 -944 62
-1395 234 -649 247 -1219 681 -1648 1253 -39 52 -80 107 -92 122 -49 64 -188
305 -260 453 -207 423 -323 850 -361 1330 -16 190 -5 558 20 751 71 532 261
1056 539 1484 237 367 620 774 947 1009 558 401 1162 626 1855 691 159 15 593
4 767 -19z"/>
<path d="M2620 7572 l-171 -2 4 -1153 c4 -1288 -1 -1207 77 -1440 74 -221 172
-381 319 -520 86 -81 120 -103 280 -184 243 -123 531 -183 876 -183 328 0 582
51 865 173 204 88 247 74 386 -128 137 -198 306 -352 468 -425 81 -37 301
-113 401 -139 44 -11 156 -39 249 -61 184 -45 246 -69 276 -108 27 -34 25 -56
-9 -84 -48 -41 -106 -51 -254 -45 -235 9 -471 85 -705 229 -86 52 -201 108
-225 108 -10 0 -35 11 -55 25 -35 24 -44 25 -179 25 l-143 0 0 -485 0 -484 24
-13 c14 -7 55 -42 93 -76 72 -67 106 -85 288 -148 323 -113 656 -161 1044
-151 379 11 602 62 896 207 138 68 208 118 318 227 133 131 237 313 289 503
20 75 23 107 22 265 0 166 -2 187 -28 270 -35 115 -74 201 -131 282 -25 35
-45 67 -45 72 0 10 -136 143 -182 178 -21 15 -60 45 -87 66 -98 74 -181 105
-521 192 -8 2 -84 20 -168 40 -292 69 -380 114 -351 179 38 83 313 85 554 4
103 -35 183 -74 316 -153 145 -86 237 -105 352 -71 99 29 158 117 178 266 7
51 9 167 7 299 -6 236 -19 306 -72 376 -14 18 -26 43 -26 55 0 38 -185 112
-440 175 -296 73 -494 98 -780 99 -357 1 -600 -45 -869 -165 -92 -41 -119 -40
-158 4 -47 52 -47 48 -53 857 -5 646 -9 773 -22 817 -16 56 -62 133 -78 133
-6 0 -10 20 -10 45 l0 45 -87 0 c-49 1 -137 3 -197 7 -60 3 -264 2 -452 -2
l-343 -7 -4 -1077 c-4 -1142 -3 -1135 -51 -1246 -43 -100 -146 -162 -287 -172
-187 -13 -322 102 -360 307 -9 46 -14 336 -19 1005 -4 624 -10 950 -17 971
-17 50 -40 88 -67 113 -19 18 -26 35 -26 61 l0 37 -182 7 c-101 4 -267 5 -370
4 -104 -2 -265 -4 -358 -6z m760 -1099 c0 -522 5 -991 10 -1043 29 -291 138
-439 365 -495 92 -22 284 -23 379 -1 187 44 302 165 352 371 16 63 18 171 21
1093 l4 1022 389 0 390 0 0 -1022 c0 -1093 -1 -1115 -51 -1298 -62 -231 -224
-442 -434 -567 -212 -126 -438 -181 -786 -190 -298 -8 -501 17 -709 86 -405
136 -646 439 -700 881 -6 53 -10 463 -10 1097 l0 1013 390 0 390 0 0 -947z
m3566 -808 c220 -25 407 -65 622 -136 l122 -41 0 -349 0 -349 -40 0 c-32 0
-56 11 -123 56 -169 115 -409 214 -620 256 -158 32 -422 32 -549 0 -236 -58
-342 -182 -297 -346 6 -22 28 -56 53 -80 65 -66 177 -103 506 -171 435 -90
667 -167 845 -280 33 -21 96 -75 141 -119 64 -64 90 -99 122 -166 59 -121 74
-184 79 -342 6 -156 -9 -255 -58 -377 -79 -197 -263 -384 -495 -499 -262 -131
-656 -191 -1064 -163 -312 22 -518 66 -847 183 l-113 40 0 364 0 364 43 0 c36
0 55 -10 132 -65 172 -124 450 -244 682 -295 274 -60 606 -45 765 36 107 54
158 126 158 224 0 138 -109 234 -326 289 -43 11 -182 41 -309 66 -483 98 -713
195 -901 380 -79 78 -98 103 -138 187 -60 122 -86 242 -86 393 0 166 33 288
111 423 39 65 192 224 262 271 339 229 765 308 1323 246z"/>
<path d="M2673 6318 c3 -1026 3 -1044 24 -1130 92 -373 317 -602 698 -713 181
-52 249 -60 550 -60 301 0 369 8 551 61 340 98 563 300 664 601 59 179 60 189
60 1286 l0 997 -322 -2 -323 -3 -5 -1015 c-5 -741 -9 -1026 -18 -1057 -65
-229 -157 -334 -349 -399 -67 -23 -99 -28 -223 -32 -171 -5 -256 10 -367 63
-97 45 -169 118 -216 216 -75 155 -71 89 -77 1214 l-5 1010 -323 3 -323 2 4
-1042z"/>
<path d="M6390 5610 c-553 -54 -967 -330 -1056 -705 -21 -88 -21 -265 -1 -360
57 -266 207 -430 514 -560 152 -66 273 -99 601 -165 403 -81 522 -135 597
-271 27 -48 30 -63 29 -139 -1 -139 -50 -212 -194 -285 -172 -87 -495 -105
-793 -44 -227 46 -503 161 -692 288 l-90 60 -3 -296 c-1 -163 1 -300 5 -304
14 -13 273 -96 399 -128 401 -101 898 -107 1252 -15 316 82 578 267 695 493
120 228 121 542 5 751 -43 77 -80 120 -152 178 -177 144 -380 219 -891 328
-450 97 -548 140 -609 273 -31 70 -29 180 6 247 43 81 125 147 234 185 243 85
584 73 896 -31 114 -38 315 -134 397 -189 101 -69 92 -92 89 230 l-3 284 -25
12 c-89 42 -426 120 -635 148 -149 19 -448 27 -575 15z"/>
<path d="M2050 8814 c-69 -57 -126 -109 -128 -114 -3 -7 403 -502 472 -577 8
-9 43 14 149 103 l138 115 -31 39 c-17 22 -35 42 -38 44 -4 2 -43 -27 -87 -64
-44 -38 -84 -69 -90 -69 -9 0 -137 151 -142 167 -1 4 20 25 48 47 27 22 61 50
76 61 l26 22 -33 41 c-18 23 -37 41 -42 41 -5 0 -42 -27 -81 -61 l-72 -61 -43
49 c-24 26 -52 60 -62 74 l-19 26 79 67 c44 37 80 70 80 74 0 10 -60 82 -68
82 -4 -1 -63 -48 -132 -106z"/>
<path d="M8111 8369 l-265 -270 119 -119 120 -120 45 45 45 45 -73 73 -72 73
71 69 c39 39 138 141 221 228 l151 158 -43 44 c-25 25 -47 45 -50 44 -3 0
-124 -122 -269 -270z"/>
<path d="M1622 8414 l-42 -46 19 -27 c11 -14 87 -114 169 -221 82 -107 148
-197 146 -199 -2 -2 -110 60 -241 137 l-238 142 -42 -48 c-23 -26 -41 -51 -40
-55 1 -4 153 -92 337 -196 l335 -188 45 50 c25 27 48 55 51 61 6 9 -403 582
-445 624 -11 11 -20 5 -54 -34z"/>
<path d="M8949 7806 c-41 -14 -84 -43 -116 -78 -37 -40 -55 -97 -60 -197 -6
-119 -16 -153 -54 -186 -38 -31 -81 -32 -109 -3 -38 41 -19 100 45 135 18 10
17 13 -15 64 -19 30 -35 56 -37 58 -7 10 -86 -53 -113 -91 -49 -67 -38 -144
34 -241 32 -44 95 -77 147 -77 84 1 179 62 221 144 15 29 22 69 27 160 8 129
16 153 62 180 36 21 51 20 83 -5 37 -29 34 -64 -8 -104 l-34 -31 32 -52 c17
-28 34 -52 37 -52 3 0 25 14 48 31 103 74 101 198 -6 301 -60 58 -111 70 -184
44z"/>
<path d="M1107 7756 l-36 -54 320 -211 319 -210 37 55 c20 30 34 56 32 58 -8
7 -629 416 -633 416 -2 0 -19 -24 -39 -54z"/>
<path d="M837 7298 c-14 -29 -22 -56 -18 -59 3 -3 109 -53 234 -110 147 -67
220 -105 205 -107 -13 -1 -135 11 -272 27 -137 17 -251 30 -252 28 -6 -8 -74
-161 -71 -163 6 -7 676 -314 684 -314 5 0 20 23 33 51 20 43 22 52 10 59 -8 5
-120 58 -248 117 -129 60 -227 109 -218 111 13 3 452 -49 529 -63 25 -4 30 1
62 65 19 38 35 76 35 83 0 10 -575 286 -672 322 -14 6 -23 -4 -41 -47z"/>
<path d="M9181 7066 c-284 -120 -339 -154 -361 -222 -30 -89 12 -215 89 -269
37 -26 51 -30 109 -30 62 1 86 8 340 115 301 126 279 108 241 195 l-19 43
-262 -110 c-145 -61 -279 -113 -299 -115 -48 -7 -90 28 -91 76 -2 57 42 84
322 200 138 58 253 108 256 112 6 10 -43 119 -53 118 -4 -1 -127 -51 -272
-113z"/>
<path d="M517 6503 c-8 -14 -29 -114 -25 -118 2 -2 121 -33 264 -69 294 -74
305 -77 334 -106 27 -27 27 -83 0 -110 -37 -37 -67 -33 -375 46 -137 35 -255
64 -261 64 -9 0 -48 -121 -41 -126 1 -1 135 -34 297 -74 244 -61 303 -72 340
-66 93 14 152 77 172 182 19 107 -24 191 -119 232 -38 16 -554 152 -577 152
-2 0 -7 -3 -9 -7z"/>
<path d="M9377 6295 c-197 -45 -360 -84 -362 -87 -4 -4 20 -116 26 -122 2 -2
71 11 153 30 165 38 166 38 166 -27 0 -61 -23 -78 -149 -110 -63 -16 -119 -34
-126 -39 -10 -9 -10 -22 2 -68 8 -31 16 -58 17 -60 2 -1 27 6 57 16 30 11 86
27 125 36 101 25 130 45 147 103 13 45 15 46 26 25 42 -78 238 -66 319 20 43
47 44 78 10 230 -17 77 -36 138 -42 137 -6 -1 -172 -38 -369 -84z m309 -120
c7 -50 -2 -67 -47 -91 -30 -15 -116 -19 -137 -5 -17 10 -43 83 -34 93 9 9 158
46 189 47 18 1 23 -6 29 -44z"/>
<path d="M681 5260 c-18 -58 -36 -116 -40 -130 -7 -22 -23 -30 -130 -62 -68
-20 -125 -38 -127 -41 -2 -2 40 -16 94 -31 166 -48 153 -37 192 -167 18 -63
36 -118 40 -122 4 -4 22 44 40 108 19 63 37 119 40 125 3 5 61 26 129 47 72
21 117 39 109 44 -7 4 -62 22 -123 39 -60 18 -111 34 -113 35 -1 1 -20 60 -41
131 l-38 129 -32 -105z"/>
<path d="M9260 4063 c-25 -98 -45 -182 -45 -187 0 -15 445 -127 451 -113 15
43 93 361 89 367 -2 4 -17 10 -32 13 -16 3 -35 8 -44 12 -14 5 -21 -12 -43
-102 -15 -60 -31 -115 -35 -122 -10 -15 -80 -5 -87 13 -3 7 7 55 21 107 14 52
25 97 25 101 0 7 -80 32 -85 26 -1 -2 -15 -48 -30 -103 -15 -55 -29 -103 -31
-107 -4 -6 -61 6 -70 14 -2 2 10 55 26 118 16 63 30 116 30 117 0 3 -73 23
-85 23 -6 0 -30 -80 -55 -177z"/>
<path d="M743 3996 c-111 -34 -205 -65 -208 -68 -6 -6 4 -43 76 -279 l29 -97
47 14 c25 8 47 15 49 17 1 1 -13 52 -32 112 -18 61 -34 115 -34 121 0 6 12 14
28 17 15 3 34 9 44 12 16 6 23 -11 75 -188 4 -16 11 -18 41 -12 21 4 41 10 45
15 5 4 -6 54 -23 110 -17 56 -29 104 -27 106 9 10 67 22 71 16 2 -4 18 -54 36
-112 18 -58 33 -106 35 -108 7 -8 85 20 85 31 0 7 -23 90 -51 185 -40 132 -56
172 -68 171 -9 -1 -107 -29 -218 -63z"/>
<path d="M9161 3718 c-5 -13 -16 -40 -24 -61 -16 -37 -16 -38 6 -46 116 -45
207 -84 207 -90 0 -3 -62 -19 -138 -35 -75 -16 -142 -31 -149 -33 -11 -4 -59
-120 -52 -127 2 -2 100 -42 217 -89 184 -74 214 -83 219 -69 3 9 14 37 24 61
11 24 18 45 17 47 -2 1 -50 21 -108 44 -58 23 -109 45 -113 50 -8 7 27 17 210
56 l82 17 22 59 c13 35 18 63 13 68 -8 8 -408 170 -419 170 -3 0 -9 -10 -14
-22z"/>
<path d="M970 3509 c-85 -37 -181 -80 -212 -93 l-58 -25 34 -78 c71 -167 108
-219 169 -242 98 -37 274 37 318 132 30 67 24 108 -33 241 -28 67 -54 124 -57
127 -3 4 -76 -24 -161 -62z m141 -150 c17 -56 4 -87 -55 -123 -37 -23 -60 -30
-99 -31 -47 0 -53 3 -74 34 -13 19 -23 41 -23 50 0 11 34 32 103 63 56 25 110
46 119 47 12 1 21 -12 29 -40z"/>
<path d="M8944 3132 c-79 -37 -154 -160 -154 -250 1 -116 135 -232 269 -232
64 0 124 32 166 90 62 84 82 181 52 253 -17 39 -81 98 -138 128 -60 30 -143
35 -195 11z m134 -141 c95 -49 121 -123 63 -182 -35 -34 -68 -37 -126 -10 -99
45 -131 118 -79 180 21 25 33 31 65 31 22 0 57 -9 77 -19z"/>
<path d="M1215 3003 c-132 -82 -160 -105 -181 -145 -34 -65 -5 -181 66 -262
43 -49 83 -68 140 -68 53 0 71 8 231 104 l117 71 -35 58 c-20 33 -38 59 -41
59 -3 0 -65 -36 -138 -80 -72 -44 -141 -80 -153 -80 -33 0 -81 52 -81 87 0 38
19 55 163 143 64 39 117 76 117 81 0 17 -62 109 -73 108 -7 0 -66 -34 -132
-76z"/>
<path d="M8600 2643 c-22 -31 -37 -60 -33 -63 53 -45 377 -260 383 -254 18 21
70 98 70 105 0 6 -307 225 -366 262 -9 5 -26 -12 -54 -50z"/>
<path d="M1553 2514 c-56 -20 -136 -94 -162 -147 -43 -88 -14 -195 74 -276 55
-50 105 -65 174 -50 28 6 51 12 51 14 0 2 -10 28 -21 59 l-22 56 -48 -6 c-44
-6 -50 -4 -79 24 -39 39 -40 79 -3 123 33 39 109 89 135 89 61 0 109 -64 90
-119 -10 -28 -8 -32 35 -65 26 -20 50 -36 54 -36 5 0 16 25 25 56 19 68 11
106 -39 180 -62 93 -170 133 -264 98z"/>
<path d="M8425 2402 c-68 -42 -144 -153 -145 -210 0 -38 30 -92 61 -107 56
-30 114 -16 210 49 66 44 106 48 115 9 15 -57 -46 -108 -103 -87 -26 9 -31 6
-65 -40 -21 -27 -38 -53 -38 -57 0 -7 41 -24 82 -33 57 -13 141 41 198 127 34
50 40 67 40 111 0 88 -54 146 -135 146 -41 0 -76 -16 -157 -72 -63 -44 -91
-46 -96 -7 -4 37 41 72 83 65 27 -5 34 0 68 47 l38 52 -28 12 c-41 18 -94 15
-128 -5z"/>
<path d="M1881 1984 c-118 -57 -217 -107 -220 -109 -6 -7 58 -73 83 -87 13 -7
27 -5 52 8 l34 18 59 -58 60 -59 -19 -38 -20 -38 52 -45 c29 -25 55 -46 58
-46 7 0 190 432 190 448 0 12 -92 104 -109 109 -3 1 -102 -46 -220 -103z m153
-119 l-39 -74 -37 36 -38 37 73 42 c39 23 74 40 76 38 3 -2 -13 -38 -35 -79z"/>
<path d="M8063 2019 c-74 -37 -153 -139 -153 -200 0 -37 30 -86 64 -104 45
-24 99 -16 190 29 40 20 79 36 87 36 45 0 53 -67 13 -99 -29 -23 -65 -27 -96
-10 -17 9 -26 5 -64 -32 -24 -24 -43 -48 -41 -53 6 -18 72 -46 110 -46 51 0
106 30 166 89 78 79 92 164 37 236 -49 64 -127 64 -243 -1 -67 -37 -98 -43
-107 -18 -15 38 37 80 87 70 27 -5 37 -1 74 36 24 23 43 45 43 49 0 12 -67 39
-97 39 -15 0 -47 -9 -70 -21z"/>
<path d="M2275 1630 c-74 -98 -136 -183 -137 -189 -2 -7 97 -91 107 -91 1 0
26 34 56 75 29 41 57 75 61 75 4 0 14 -10 22 -23 14 -20 13 -34 0 -122 l-15
-99 23 -18 c13 -10 42 -31 65 -48 l41 -30 12 71 c7 40 10 96 8 125 l-5 54 37
-6 c54 -9 103 17 130 70 45 84 13 131 -183 273 l-87 63 -135 -180z m258 -29
c31 -28 34 -52 11 -75 -22 -22 -33 -20 -88 14 l-47 30 31 41 c35 43 34 43 93
-10z"/>
<path d="M7612 1649 c-91 -66 -151 -116 -149 -124 13 -32 260 -366 269 -363
20 7 307 213 308 221 0 12 -44 77 -54 77 -8 0 -94 -59 -173 -118 l-32 -23 -27
40 c-15 23 -25 43 -23 44 2 2 43 31 91 66 l88 62 -23 34 c-12 19 -26 35 -31
35 -5 0 -46 -27 -93 -60 -46 -33 -87 -60 -91 -60 -4 0 -16 13 -25 30 l-18 29
73 54 c40 30 83 60 96 68 28 18 28 27 -6 66 l-27 33 -153 -111z"/>
<path d="M2732 1289 c-63 -111 -112 -202 -110 -204 13 -11 328 -185 335 -185
10 0 58 79 52 84 -2 2 -50 29 -106 61 -57 31 -103 61 -103 65 0 5 10 25 21 45
l21 36 42 -24 c22 -14 66 -39 97 -56 l57 -32 23 37 22 37 -20 16 c-12 9 -55
35 -97 59 -42 23 -76 46 -76 50 0 4 9 18 20 32 l19 25 43 -22 c24 -12 71 -38
105 -58 l61 -35 21 34 c12 18 21 38 21 43 0 10 -312 193 -327 193 -5 0 -59
-91 -121 -201z"/>
<path d="M7125 1345 c-77 -41 -139 -78 -138 -83 2 -10 211 -393 217 -400 4 -3
86 37 114 56 10 6 2 27 -32 88 -39 71 -42 80 -28 92 25 19 33 16 125 -44 l87
-56 70 39 71 40 -78 51 c-43 28 -93 54 -110 58 l-31 6 20 35 c36 60 10 154
-50 182 -51 24 -93 13 -237 -64z m163 -57 c21 -21 14 -56 -15 -76 -65 -45 -71
-46 -93 -10 -27 44 -25 53 13 76 37 23 78 27 95 10z"/>
<path d="M6720 1163 c-8 -3 -39 -15 -68 -25 -162 -60 -208 -216 -110 -371 62
-98 164 -125 291 -77 64 24 177 120 177 150 0 27 -61 180 -72 180 -9 0 -190
-68 -196 -74 -4 -4 29 -86 34 -86 3 0 21 7 41 15 46 20 50 19 56 -7 7 -26 -14
-53 -57 -75 -43 -22 -93 -19 -123 9 -61 56 -84 175 -40 216 38 35 75 45 110
27 28 -14 32 -13 83 16 30 17 54 37 54 44 0 26 -61 58 -114 62 -28 1 -58 0
-66 -4z"/>
<path d="M3480 983 c-59 -178 -61 -219 -14 -281 52 -68 209 -119 287 -93 66
22 99 73 155 240 35 105 47 153 39 156 -64 23 -102 35 -112 35 -8 0 -32 -56
-59 -138 -57 -170 -65 -182 -117 -182 -44 0 -89 34 -89 67 0 11 22 85 49 165
l49 147 -61 20 c-33 12 -64 21 -68 21 -4 0 -31 -71 -59 -157z"/>
<path d="M6089 966 c-108 -29 -170 -97 -177 -195 -11 -158 85 -281 221 -281
214 0 321 162 237 358 -48 112 -149 154 -281 118z m122 -122 c22 -20 49 -103
49 -152 0 -49 -45 -92 -98 -92 -32 0 -45 6 -66 30 -41 49 -59 146 -36 190 26
48 110 61 151 24z"/>
<path d="M4046 933 c-4 -21 -9 -45 -12 -54 -3 -12 10 -18 63 -28 37 -7 70 -14
73 -16 4 -2 -8 -75 -26 -162 -18 -87 -33 -165 -34 -174 0 -11 17 -19 66 -28
37 -6 68 -11 69 -9 2 2 17 75 35 163 17 88 33 165 35 172 3 9 19 8 66 -3 35
-8 68 -13 75 -10 11 4 30 93 21 102 -4 5 -394 84 -413 84 -6 0 -15 -17 -18
-37z"/>
<path d="M5496 864 c-71 -8 -132 -16 -134 -19 -5 -5 36 -430 43 -452 4 -11 19
-11 110 3 l31 4 -10 90 c-5 50 -6 93 -3 96 3 4 17 4 31 0 16 -4 43 -34 81 -90
l57 -83 46 4 c26 3 62 8 80 12 l32 6 -36 55 c-45 67 -93 120 -111 120 -22 0
-15 16 12 28 59 27 82 119 45 179 -37 61 -83 69 -274 47z m138 -100 c20 -19
21 -48 2 -63 -22 -18 -110 -31 -118 -18 -12 19 -9 85 5 90 28 12 96 6 111 -9z"/>
<path d="M4846 820 c-3 -18 -6 -124 -6 -236 l0 -204 70 0 69 0 3 87 3 86 77 2
c54 2 86 8 110 22 87 50 91 197 5 248 -27 16 -56 20 -178 23 l-146 4 -7 -32z
m242 -82 c17 -14 15 -53 -4 -72 -16 -16 -89 -22 -97 -8 -2 4 -2 29 1 55 l4 48
42 -6 c22 -4 47 -12 54 -17z"/>
</g>
</svg>
